<svg xmlns="http://www.w3.org/2000/svg" viewBox="0 0 192 192" width="192" height="192">
  <defs>
    <linearGradient id="grad" x1="0%" y1="0%" x2="100%" y2="100%">
      <stop offset="0%" style="stop-color:#e94560"/>
      <stop offset="100%" style="stop-color:#533483"/>
    </linearGradient>
  </defs>
  <rect width="192" height="192" rx="38.400000000000006" fill="url(#grad)"/>
  <g transform="translate(96, 96) scale(1.5)">
    <path d="M0 -40C-6.6 -40 -12 -34.6 -12 -28V-24.3C-18.5 -21.2 -24 -16.3 -24 -8V12L-32 20V24H32V20L24 12V-8C24 -16.3 18.5 -21.2 12 -24.3V-28C12 -34.6 6.6 -40 0 -40Z" fill="white"/>
    <path d="M0 40C6.6 40 12 34.6 12 28H-12C-12 34.6 -6.6 40 0 40Z" fill="white"/>
  </g>
</svg>